<svg width="22" height="18" viewBox="0 0 22 18" fill="none" xmlns="http://www.w3.org/2000/svg">
<path d="M19.472 0.93999C19.6085 0.800722 19.7714 0.690085 19.9511 0.614555C20.1309 0.539026 20.324 0.500122 20.519 0.500122C20.714 0.500122 20.907 0.539026 21.0868 0.614555C21.2666 0.690085 21.4295 0.800722 21.566 0.93999C22.138 1.51799 22.146 2.45199 21.586 3.03999L9.75996 17.02C9.62569 17.1674 9.46276 17.2859 9.28112 17.3682C9.09948 17.4505 8.90296 17.4949 8.70357 17.4987C8.50419 17.5024 8.30614 17.4654 8.12154 17.39C7.93694 17.3146 7.76967 17.2023 7.62996 17.06L0.43396 9.76799C0.156435 9.48496 0.000976562 9.10438 0.000976562 8.70799C0.000976562 8.3116 0.156435 7.93102 0.43396 7.64799C0.570452 7.50872 0.733357 7.39808 0.913137 7.32256C1.09292 7.24703 1.28596 7.20812 1.48096 7.20812C1.67596 7.20812 1.869 7.24703 2.04878 7.32256C2.22856 7.39808 2.39147 7.50872 2.52796 7.64799L8.63196 13.834L19.432 0.98399C19.4444 0.968534 19.4578 0.95384 19.472 0.93999Z" fill="#51C6BD"/>
</svg>
