<svg width="32" height="32" viewBox="0 0 32 32" fill="none" xmlns="http://www.w3.org/2000/svg">
<path d="M2.6665 7.99992C2.6665 7.29267 2.94746 6.6144 3.44755 6.1143C3.94765 5.6142 4.62593 5.33325 5.33317 5.33325H26.6665C27.3737 5.33325 28.052 5.6142 28.5521 6.1143C29.0522 6.6144 29.3332 7.29267 29.3332 7.99992V23.9999C29.3332 24.7072 29.0522 25.3854 28.5521 25.8855C28.052 26.3856 27.3737 26.6666 26.6665 26.6666H5.33317C4.62593 26.6666 3.94765 26.3856 3.44755 25.8855C2.94746 25.3854 2.6665 24.7072 2.6665 23.9999V7.99992Z" fill="#E9E9E9" stroke="#21272C" stroke-width="2" stroke-linecap="round" stroke-linejoin="round"/>
<path d="M2.6665 10.6667L12.6678 18.6681C13.6136 19.4248 14.7887 19.837 15.9998 19.837C17.211 19.837 18.3861 19.4248 19.3318 18.6681L29.3332 10.6667" fill="#E9E9E9"/>
<path d="M2.6665 10.6667L12.6678 18.6681C13.6136 19.4248 14.7887 19.837 15.9998 19.837C17.211 19.837 18.3861 19.4248 19.3318 18.6681L29.3332 10.6667" stroke="#21272C" stroke-width="2" stroke-linejoin="round"/>
</svg>
