<svg width="28" height="28" viewBox="0 0 28 28" fill="none" xmlns="http://www.w3.org/2000/svg">
<path fill-rule="evenodd" clip-rule="evenodd" d="M10.5718 9.95875H15.5238V12.4254C16.2372 11.0067 18.0665 9.73208 20.8145 9.73208C26.0825 9.73208 27.3332 12.5561 27.3332 17.7374V27.3334H21.9998V18.9174C21.9998 15.9667 21.2865 14.3027 19.4705 14.3027C16.9518 14.3027 15.9052 16.0961 15.9052 18.9161V27.3334H10.5718V9.95875ZM1.4265 27.1067H6.75984V9.73208H1.4265V27.1067ZM7.52384 4.06675C7.52403 4.51378 7.43538 4.95639 7.26302 5.36886C7.09066 5.78133 6.83804 6.15543 6.51984 6.46942C5.87504 7.11025 5.00225 7.46895 4.09317 7.46675C3.18569 7.46614 2.31492 7.10835 1.66917 6.47075C1.35212 6.1557 1.10035 5.78118 0.928295 5.36866C0.756239 4.95613 0.667276 4.51371 0.666504 4.06675C0.666504 3.16408 1.0265 2.30008 1.6705 1.66275C2.31568 1.02429 3.18682 0.666349 4.0945 0.666748C5.00384 0.666748 5.87584 1.02542 6.51984 1.66275C7.1625 2.30008 7.52384 3.16408 7.52384 4.06675Z" fill="#E9E9E9"/>
</svg>
