<svg width="64" height="64" viewBox="0 0 64 64" fill="none" xmlns="http://www.w3.org/2000/svg">
<path d="M31.9753 23.7193C32.066 23.7193 32.1553 23.7107 32.244 23.6927C32.3326 23.6753 32.4186 23.6493 32.502 23.6147C32.5853 23.58 32.6646 23.538 32.74 23.4873C32.8146 23.4373 32.8846 23.38 32.9486 23.3167C33.012 23.2527 33.0693 23.1827 33.1193 23.108C33.17 23.0327 33.212 22.9533 33.2466 22.87C33.2813 22.7867 33.3073 22.7007 33.3246 22.612C33.3426 22.5233 33.3513 22.434 33.3513 22.3433C33.3513 22.2533 33.3426 22.1633 33.3246 22.0747C33.3073 21.986 33.2813 21.9 33.2466 21.8167C33.212 21.7333 33.17 21.654 33.1193 21.5787C33.0693 21.504 33.012 21.434 32.9486 21.3707C32.8846 21.3067 32.8146 21.2493 32.74 21.1993C32.6646 21.1493 32.5853 21.1067 32.502 21.072C32.4186 21.0373 32.3326 21.0113 32.244 20.994C32.1553 20.976 32.066 20.9673 31.9753 20.9673C31.7953 20.9673 31.6153 20.972 31.4353 20.9807C31.2553 20.9893 31.076 21.0027 30.8966 21.0207C30.7173 21.038 30.5386 21.06 30.36 21.0867C30.182 21.1127 30.0046 21.144 29.828 21.1787C29.6513 21.214 29.4753 21.2533 29.3006 21.2973C29.126 21.3413 28.952 21.3893 28.78 21.4413C28.6073 21.494 28.4366 21.55 28.2666 21.6107C28.0973 21.6713 27.9293 21.7367 27.7626 21.8053C27.5966 21.874 27.432 21.9473 27.2686 22.024C27.106 22.1013 26.9453 22.182 26.786 22.2673C26.6273 22.352 26.4706 22.4407 26.316 22.5333C26.1613 22.626 26.0093 22.7227 25.86 22.8227C25.71 22.9227 25.5626 23.0267 25.418 23.134C25.2733 23.2407 25.1313 23.352 24.992 23.466C24.8526 23.5807 24.7166 23.698 24.5826 23.8187C24.4493 23.94 24.3186 24.064 24.1913 24.1913C24.064 24.3187 23.94 24.4493 23.8186 24.5827C23.698 24.7167 23.5806 24.8527 23.466 24.992C23.352 25.1313 23.2406 25.2733 23.134 25.418C23.0266 25.5627 22.9226 25.71 22.8226 25.8593C22.7226 26.0093 22.626 26.1613 22.5333 26.316C22.4406 26.4707 22.352 26.6273 22.2673 26.786C22.182 26.9453 22.1013 27.106 22.024 27.2687C21.9473 27.432 21.874 27.5967 21.8053 27.7627C21.7366 27.9293 21.6713 28.0973 21.6106 28.2667C21.55 28.4367 21.494 28.6073 21.4413 28.78C21.3893 28.952 21.3413 29.126 21.2973 29.3007C21.2533 29.4753 21.214 29.6513 21.1786 29.828C21.144 30.0047 21.1126 30.182 21.0866 30.36C21.06 30.5387 21.038 30.7173 21.0206 30.8967C21.0026 31.076 20.9893 31.2553 20.9806 31.4353C20.972 31.6153 20.9673 31.7953 20.9673 31.9753C20.9673 32.1553 20.972 32.3353 20.9806 32.5153C20.9893 32.6953 21.0026 32.8753 21.0206 33.0547C21.038 33.2333 21.06 33.4127 21.0866 33.5907C21.1126 33.7687 21.144 33.946 21.1786 34.1227C21.214 34.2993 21.2533 34.4753 21.2973 34.65C21.3413 34.8247 21.3893 34.9987 21.4413 35.1707C21.494 35.3433 21.55 35.514 21.6106 35.684C21.6713 35.8533 21.7366 36.0213 21.8053 36.188C21.874 36.3547 21.9473 36.5193 22.024 36.682C22.1013 36.8447 22.182 37.0053 22.2673 37.1647C22.352 37.3233 22.4406 37.48 22.5333 37.6347C22.626 37.7893 22.7226 37.9413 22.8226 38.0913C22.9226 38.2407 23.0266 38.388 23.134 38.5327C23.2406 38.6773 23.352 38.8193 23.466 38.9587C23.5806 39.098 23.698 39.2347 23.8186 39.368C23.94 39.5013 24.064 39.632 24.1913 39.7593C24.3186 39.8867 24.4493 40.0107 24.5826 40.132C24.7166 40.2527 24.8526 40.3707 24.992 40.4847C25.1313 40.5987 25.2733 40.71 25.418 40.8173C25.5626 40.9247 25.71 41.028 25.8593 41.128C26.0093 41.228 26.1613 41.3247 26.316 41.4173C26.4706 41.51 26.6273 41.5987 26.786 41.6833C26.9453 41.7687 27.106 41.8493 27.2686 41.9267C27.432 42.0033 27.5966 42.0767 27.7626 42.1453C27.9293 42.2147 28.0973 42.2793 28.2666 42.34C28.4366 42.4007 28.6073 42.4573 28.78 42.5093C28.952 42.562 29.126 42.61 29.3006 42.6533C29.4753 42.6973 29.6513 42.7367 29.828 42.772C30.0046 42.8073 30.182 42.838 30.36 42.864C30.5386 42.8907 30.7173 42.9127 30.8966 42.9307C31.076 42.948 31.2553 42.9613 31.4353 42.97C31.6153 42.9787 31.7953 42.9833 31.9753 42.9833C32.1553 42.9833 32.3353 42.9787 32.5153 42.97C32.6953 42.9613 32.8753 42.948 33.0546 42.9307C33.2333 42.9127 33.4126 42.8907 33.5906 42.864C33.7686 42.838 33.946 42.8073 34.1226 42.772C34.2993 42.7367 34.4753 42.6973 34.65 42.6533C34.8246 42.61 34.9986 42.562 35.1706 42.5093C35.3433 42.4573 35.514 42.4007 35.684 42.34C35.8533 42.2793 36.0213 42.2147 36.188 42.1453C36.3546 42.0767 36.5193 42.0033 36.682 41.9267C36.8446 41.8493 37.0053 41.7687 37.1646 41.6833C37.3233 41.5987 37.48 41.51 37.6346 41.4173C37.7893 41.3247 37.9413 41.228 38.0913 41.128C38.2406 41.028 38.388 40.9247 38.5326 40.8173C38.6773 40.71 38.8193 40.5987 38.9586 40.4847C39.098 40.3707 39.2346 40.2527 39.368 40.132C39.5013 40.0107 39.632 39.8867 39.7593 39.7593C39.8866 39.632 40.0106 39.5013 40.132 39.368C40.2526 39.2347 40.3706 39.098 40.4846 38.9587C40.5986 38.8193 40.71 38.6773 40.8173 38.5327C40.9246 38.388 41.028 38.2407 41.128 38.0913C41.228 37.9413 41.3246 37.7893 41.4173 37.6347C41.51 37.48 41.5986 37.3233 41.6833 37.1647C41.7686 37.0053 41.8493 36.8447 41.9266 36.682C42.0033 36.5193 42.0766 36.3547 42.1453 36.188C42.2146 36.0213 42.2793 35.8533 42.34 35.684C42.4006 35.514 42.4573 35.3433 42.5093 35.1707C42.562 34.9987 42.61 34.8247 42.6533 34.65C42.6973 34.4753 42.7366 34.2993 42.772 34.1227C42.8073 33.946 42.838 33.7687 42.864 33.5907C42.8906 33.4127 42.9126 33.2333 42.9306 33.0547C42.948 32.8753 42.9613 32.6953 42.97 32.5153C42.9786 32.3353 42.9833 32.1553 42.9833 31.9753C42.9833 31.8853 42.9746 31.7953 42.9566 31.7067C42.9393 31.618 42.9133 31.532 42.8786 31.4487C42.844 31.3653 42.802 31.286 42.7513 31.2107C42.7013 31.136 42.644 31.066 42.5806 31.0027C42.5166 30.9387 42.4466 30.8813 42.372 30.8313C42.2966 30.7813 42.2173 30.7387 42.134 30.704C42.0506 30.6693 41.9646 30.6433 41.876 30.626C41.7873 30.608 41.698 30.5993 41.6073 30.5993C41.5173 30.5993 41.4273 30.608 41.3386 30.626C41.25 30.6433 41.164 30.6693 41.0806 30.704C40.9973 30.7387 40.918 30.7813 40.8426 30.8313C40.768 30.8813 40.698 30.9387 40.6346 31.0027C40.5706 31.066 40.5133 31.136 40.4633 31.2107C40.4133 31.286 40.3706 31.3653 40.336 31.4487C40.3013 31.532 40.2753 31.618 40.258 31.7067C40.24 31.7953 40.2313 31.8853 40.2313 31.9753C40.2313 32.246 40.218 32.5153 40.1913 32.7847C40.1653 33.054 40.1253 33.3207 40.0726 33.586C40.02 33.8513 39.9546 34.1133 39.876 34.372C39.7973 34.6307 39.7066 34.8853 39.6026 35.1347C39.4993 35.3847 39.384 35.6287 39.2566 35.8673C39.1293 36.106 38.99 36.3373 38.84 36.562C38.69 36.7867 38.5286 37.004 38.3573 37.2127C38.186 37.422 38.0046 37.622 37.8133 37.8133C37.622 38.0047 37.422 38.186 37.2126 38.3573C37.004 38.5287 36.7866 38.69 36.562 38.84C36.3373 38.99 36.106 39.1293 35.8673 39.2567C35.6286 39.384 35.3846 39.4993 35.1346 39.6027C34.8853 39.7067 34.6306 39.7973 34.372 39.876C34.1133 39.9547 33.8513 40.02 33.586 40.0727C33.3206 40.1253 33.054 40.1653 32.7846 40.1913C32.5153 40.218 32.246 40.2313 31.9753 40.2313C31.7046 40.2313 31.4353 40.218 31.166 40.1913C30.8973 40.1653 30.63 40.1253 30.3646 40.0727C30.0993 40.02 29.8373 39.9547 29.5786 39.876C29.32 39.7973 29.066 39.7067 28.816 39.6027C28.566 39.4993 28.322 39.384 28.0833 39.2567C27.8453 39.1293 27.6133 38.99 27.3886 38.84C27.164 38.69 26.9466 38.5287 26.738 38.3573C26.5286 38.186 26.3286 38.0047 26.1373 37.8133C25.946 37.622 25.7646 37.422 25.5933 37.2127C25.422 37.004 25.2606 36.7867 25.1106 36.562C24.9606 36.3373 24.822 36.106 24.694 35.8673C24.5666 35.6287 24.4513 35.3847 24.348 35.1347C24.2446 34.8853 24.1533 34.6307 24.0746 34.372C23.9966 34.1133 23.9306 33.8513 23.878 33.586C23.8253 33.3207 23.7853 33.054 23.7593 32.7847C23.7326 32.5153 23.7193 32.246 23.7193 31.9753C23.7193 31.7047 23.7326 31.4353 23.7593 31.166C23.7853 30.8973 23.8253 30.63 23.878 30.3647C23.9306 30.0993 23.9966 29.8373 24.0746 29.5787C24.1533 29.32 24.2446 29.066 24.348 28.816C24.4513 28.566 24.5666 28.322 24.694 28.0833C24.822 27.8453 24.9606 27.6133 25.1106 27.3887C25.2606 27.164 25.422 26.9467 25.5933 26.738C25.7646 26.5287 25.946 26.3287 26.1373 26.1373C26.3286 25.946 26.5286 25.7647 26.738 25.5933C26.9466 25.422 27.164 25.2607 27.3886 25.1107C27.6133 24.9607 27.8453 24.822 28.0833 24.694C28.322 24.5667 28.566 24.4513 28.816 24.348C29.066 24.2447 29.32 24.1533 29.5786 24.0747C29.8373 23.9967 30.0993 23.9307 30.3646 23.878C30.63 23.8253 30.8973 23.7853 31.166 23.7593C31.4353 23.7327 31.7046 23.7193 31.9753 23.7193Z" fill="#51C6BD"/>
<path d="M58.2322 23.8067C58.2082 23.7173 58.1756 23.6313 58.1342 23.548C58.0929 23.4653 58.0442 23.3873 57.9869 23.3147C57.9296 23.2413 57.8662 23.1747 57.7956 23.1147C57.7249 23.0547 57.6496 23.002 57.5682 22.9573C57.4876 22.9127 57.4022 22.8767 57.3142 22.8487C57.2256 22.8213 57.1356 22.8027 57.0436 22.7927C56.9509 22.7833 56.8589 22.7833 56.7669 22.7927C56.6749 22.8013 56.5842 22.82 56.4956 22.8473C56.4076 22.8747 56.3222 22.9107 56.2416 22.9553C56.1602 23 56.0842 23.052 56.0136 23.112C55.9429 23.1713 55.8789 23.238 55.8216 23.3107C55.7642 23.3833 55.7149 23.4613 55.6729 23.544C55.6316 23.6267 55.5989 23.7127 55.5742 23.8027C55.5502 23.892 55.5356 23.9827 55.5296 24.0753C55.5236 24.1673 55.5269 24.2593 55.5396 24.3513C55.5529 24.4433 55.5742 24.5327 55.6056 24.62C56.3562 27.014 56.7356 29.466 56.7436 31.9753C56.7436 45.6353 45.6356 56.7433 31.9756 56.7433C18.3156 56.7433 7.20757 45.6353 7.20757 31.9753C7.20757 18.3153 18.3156 7.20732 31.9756 7.20732C34.4849 7.21532 36.9369 7.59466 39.3309 8.34599C39.4182 8.37666 39.5076 8.39866 39.5996 8.41132C39.6916 8.42399 39.7836 8.42732 39.8756 8.42132C39.9682 8.41599 40.0596 8.40066 40.1489 8.37666C40.2382 8.35199 40.3242 8.31932 40.4069 8.27799C40.4896 8.23599 40.5676 8.18666 40.6402 8.12932C40.7129 8.07199 40.7796 8.00799 40.8396 7.93732C40.8989 7.86666 40.9516 7.79066 40.9956 7.70999C41.0402 7.62866 41.0762 7.54332 41.1036 7.45532C41.1309 7.36666 41.1496 7.27599 41.1582 7.18399C41.1676 7.09199 41.1676 6.99999 41.1582 6.90732C41.1489 6.81532 41.1302 6.72532 41.1022 6.63666C41.0749 6.54866 41.0382 6.46399 40.9936 6.38266C40.9489 6.30132 40.8962 6.22599 40.8362 6.15532C40.7762 6.08466 40.7096 6.02132 40.6362 5.96399C40.5636 5.90732 40.4856 5.85799 40.4029 5.81666C40.3196 5.77532 40.2336 5.74266 40.1442 5.71866C37.4856 4.88132 34.7629 4.45999 31.9756 4.45532C16.8022 4.45532 4.45557 16.802 4.45557 31.9753C4.45557 47.1487 16.8022 59.4953 31.9756 59.4953C47.1489 59.4953 59.4956 47.1487 59.4956 31.9753C59.4909 29.188 59.0696 26.4653 58.2322 23.8067Z" fill="#51C6BD"/>
<path d="M34.5901 14.2753C34.6648 13.5247 33.9768 12.8487 33.2141 12.7867C32.8134 12.7487 32.4008 12.7113 31.9754 12.7113C21.3554 12.7113 12.7114 21.3553 12.7114 31.9753C12.7114 42.5953 21.3554 51.2393 31.9754 51.2393C42.5954 51.2393 51.2394 42.5953 51.2394 31.9753C51.2394 31.4773 51.2101 30.9813 51.1521 30.4867C50.8014 28.7853 48.2374 28.898 48.4248 30.9747C48.4648 31.3073 48.4854 31.6407 48.4874 31.9753C48.4874 32.2453 48.4808 32.516 48.4674 32.7853C48.4541 33.0553 48.4348 33.3247 48.4081 33.594C48.3814 33.8627 48.3481 34.1307 48.3088 34.398C48.2694 34.6653 48.2228 34.932 48.1701 35.1967C48.1174 35.462 48.0581 35.7253 47.9928 35.9873C47.9268 36.2493 47.8548 36.51 47.7768 36.7687C47.6981 37.0273 47.6134 37.284 47.5221 37.538C47.4314 37.7927 47.3341 38.0447 47.2308 38.294C47.1274 38.544 47.0174 38.7907 46.9021 39.0353C46.7868 39.2793 46.6654 39.5207 46.5381 39.7593C46.4101 39.9973 46.2774 40.2327 46.1381 40.464C45.9994 40.696 45.8548 40.924 45.7048 41.1487C45.5548 41.3733 45.3988 41.5947 45.2381 41.8113C45.0768 42.0287 44.9108 42.2413 44.7394 42.4507C44.5681 42.6593 44.3914 42.864 44.2101 43.064C44.0288 43.2647 43.8421 43.46 43.6514 43.6513C43.4601 43.842 43.2648 44.0287 43.0641 44.21C42.8641 44.3913 42.6594 44.568 42.4508 44.7393C42.2414 44.9107 42.0288 45.0767 41.8114 45.238C41.5948 45.3987 41.3734 45.5547 41.1488 45.7047C40.9241 45.8547 40.6961 45.9993 40.4641 46.138C40.2328 46.2773 39.9974 46.41 39.7594 46.5373C39.5208 46.6653 39.2794 46.7867 39.0354 46.902C38.7908 47.0173 38.5441 47.1273 38.2941 47.2307C38.0448 47.334 37.7928 47.4313 37.5381 47.522C37.2841 47.6133 37.0274 47.698 36.7688 47.7767C36.5101 47.8547 36.2494 47.9267 35.9874 47.9927C35.7254 48.058 35.4621 48.1173 35.1968 48.17C34.9321 48.2227 34.6654 48.2693 34.3981 48.3087C34.1308 48.348 33.8628 48.3813 33.5941 48.408C33.3248 48.4347 33.0554 48.454 32.7854 48.4673C32.5161 48.4807 32.2454 48.4873 31.9754 48.4873C31.7054 48.4873 31.4354 48.4807 31.1654 48.4673C30.8954 48.454 30.6261 48.4347 30.3568 48.408C30.0881 48.3813 29.8201 48.348 29.5528 48.3087C29.2854 48.2693 29.0194 48.2227 28.7541 48.17C28.4894 48.1173 28.2254 48.058 27.9634 47.9927C27.7014 47.9267 27.4408 47.8547 27.1821 47.7767C26.9234 47.698 26.6674 47.6133 26.4128 47.522C26.1581 47.4313 25.9061 47.334 25.6568 47.2307C25.4068 47.1273 25.1601 47.0173 24.9154 46.902C24.6714 46.7867 24.4301 46.6653 24.1921 46.538C23.9534 46.41 23.7181 46.2773 23.4868 46.138C23.2548 45.9993 23.0268 45.8547 22.8021 45.7047C22.5774 45.5547 22.3561 45.3987 22.1394 45.238C21.9221 45.0767 21.7094 44.9107 21.5001 44.7393C21.2914 44.568 21.0868 44.3913 20.8868 44.21C20.6868 44.0287 20.4908 43.842 20.2994 43.6513C20.1088 43.46 19.9221 43.2647 19.7408 43.064C19.5594 42.864 19.3828 42.6593 19.2114 42.4507C19.0401 42.2413 18.8741 42.0287 18.7128 41.8113C18.5521 41.5947 18.3961 41.3733 18.2461 41.1487C18.0961 40.924 17.9514 40.696 17.8128 40.464C17.6734 40.2327 17.5408 39.9973 17.4134 39.7593C17.2861 39.5207 17.1641 39.2793 17.0488 39.0353C16.9334 38.7907 16.8241 38.544 16.7201 38.294C16.6168 38.0447 16.5194 37.7927 16.4288 37.538C16.3374 37.284 16.2528 37.0273 16.1748 36.7687C16.0961 36.51 16.0241 36.2493 15.9581 35.9873C15.8928 35.7253 15.8334 35.462 15.7808 35.1967C15.7281 34.932 15.6821 34.6653 15.6421 34.398C15.6028 34.1307 15.5694 33.8627 15.5428 33.594C15.5168 33.3247 15.4968 33.0553 15.4834 32.7853C15.4701 32.516 15.4634 32.2453 15.4634 31.9753C15.4634 31.7053 15.4701 31.4353 15.4834 31.1653C15.4968 30.8953 15.5168 30.626 15.5428 30.3567C15.5694 30.088 15.6028 29.82 15.6421 29.5527C15.6821 29.2853 15.7281 29.0193 15.7808 28.754C15.8334 28.4893 15.8928 28.2253 15.9581 27.9633C16.0241 27.7013 16.0961 27.4407 16.1748 27.182C16.2528 26.9233 16.3374 26.6673 16.4288 26.4127C16.5194 26.158 16.6168 25.906 16.7201 25.6567C16.8241 25.4067 16.9334 25.16 17.0488 24.9153C17.1641 24.6713 17.2861 24.43 17.4134 24.192C17.5408 23.9533 17.6734 23.718 17.8128 23.4867C17.9514 23.2547 18.0961 23.0267 18.2461 22.802C18.3961 22.5773 18.5521 22.356 18.7128 22.1393C18.8741 21.922 19.0401 21.7093 19.2114 21.5C19.3828 21.2913 19.5594 21.0867 19.7408 20.8867C19.9221 20.6867 20.1088 20.4907 20.2994 20.2993C20.4908 20.1087 20.6868 19.922 20.8868 19.7407C21.0868 19.5593 21.2914 19.3827 21.5001 19.2113C21.7094 19.04 21.9221 18.874 22.1394 18.7127C22.3561 18.552 22.5774 18.396 22.8021 18.246C23.0268 18.096 23.2548 17.9513 23.4868 17.8127C23.7181 17.6733 23.9534 17.5407 24.1921 17.4133C24.4301 17.286 24.6714 17.164 24.9154 17.0487C25.1601 16.9333 25.4068 16.824 25.6568 16.72C25.9061 16.6167 26.1581 16.5193 26.4128 16.4287C26.6674 16.3373 26.9234 16.2527 27.1821 16.1747C27.4408 16.096 27.7014 16.024 27.9634 15.958C28.2254 15.8927 28.4894 15.8333 28.7541 15.7807C29.0194 15.728 29.2854 15.682 29.5528 15.642C29.8201 15.6027 30.0881 15.5693 30.3568 15.5427C30.6261 15.5167 30.8954 15.4967 31.1654 15.4833C31.4354 15.47 31.7054 15.4633 31.9754 15.4633C32.3101 15.4653 32.6441 15.486 32.9761 15.526H33.2388C33.9641 15.5887 34.5401 15.038 34.5901 14.2753Z" fill="#51C6BD"/>
<path d="M40.2316 16.8393V21.768L31.0002 31C30.9356 31.0633 30.8782 31.1333 30.8276 31.2087C30.7769 31.284 30.7342 31.3633 30.6996 31.4473C30.6649 31.5307 30.6382 31.6173 30.6209 31.706C30.6029 31.7947 30.5942 31.8847 30.5942 31.9753C30.5942 32.066 30.6029 32.156 30.6209 32.2447C30.6382 32.334 30.6649 32.42 30.6996 32.504C30.7342 32.5873 30.7769 32.6667 30.8276 32.742C30.8782 32.8173 30.9356 32.8873 31.0002 32.9513C31.0642 33.0147 31.1342 33.0713 31.2096 33.1213C31.2849 33.1713 31.3649 33.2133 31.4482 33.2473C31.5322 33.282 31.6182 33.308 31.7069 33.3253C31.7956 33.3427 31.8849 33.352 31.9756 33.352C32.0662 33.352 32.1556 33.3427 32.2442 33.3253C32.3329 33.308 32.4196 33.282 32.5029 33.2473C32.5869 33.2133 32.6662 33.1713 32.7416 33.1213C32.8169 33.0713 32.8869 33.0147 32.9516 32.9513L42.1829 23.7193H47.1116C47.2936 23.7173 47.4696 23.682 47.6376 23.6127C47.8062 23.5433 47.9562 23.446 48.0876 23.3193L56.3436 15.0633C56.4402 14.9667 56.5209 14.8587 56.5856 14.7387C56.6502 14.618 56.6956 14.4913 56.7222 14.3573C56.7489 14.2233 56.7556 14.0887 56.7422 13.9527C56.7289 13.8173 56.6962 13.686 56.6442 13.56C56.5916 13.434 56.5222 13.318 56.4356 13.2127C56.3489 13.1073 56.2489 13.0173 56.1349 12.9413C56.0216 12.866 55.8989 12.8087 55.7682 12.7693C55.6376 12.73 55.5042 12.7107 55.3676 12.7113H51.2396V8.58333C51.2389 8.44733 51.2189 8.31333 51.1796 8.18333C51.1396 8.05266 51.0822 7.93066 51.0062 7.81733C50.9309 7.704 50.8402 7.604 50.7356 7.51666C50.6302 7.43 50.5149 7.36 50.3889 7.30733C50.2629 7.258 50.1322 7.22666 49.9969 7.21466C49.8616 7.20266 49.7276 7.21 49.5942 7.23666C49.4609 7.26333 49.3342 7.308 49.2142 7.37133C49.0942 7.43466 48.9856 7.51333 48.8882 7.608L40.6322 15.864C40.5056 15.9947 40.4076 16.1447 40.3382 16.3133C40.2689 16.482 40.2336 16.6573 40.2316 16.8393ZM42.9836 17.4147L48.4876 11.9107V14.0873C48.4876 14.178 48.4962 14.2673 48.5142 14.356C48.5316 14.4447 48.5576 14.5307 48.5922 14.614C48.6269 14.6973 48.6696 14.7767 48.7196 14.852C48.7696 14.9267 48.8269 14.9967 48.8909 15.0607C48.9542 15.124 49.0242 15.1813 49.0989 15.2313C49.1742 15.282 49.2536 15.324 49.3369 15.3587C49.4202 15.3933 49.5062 15.4193 49.5949 15.4367C49.6836 15.4547 49.7736 15.4633 49.8636 15.4633H52.0402L46.5362 20.9673H42.9836V17.4147Z" fill="#51C6BD"/>
</svg>
