<svg width="31" height="26" viewBox="0 0 31 26" fill="none" xmlns="http://www.w3.org/2000/svg">
<path d="M30.5242 3.58269C29.4108 4.07602 28.2148 4.40935 26.9575 4.56002C28.2548 3.78374 29.2254 2.56198 29.6882 1.12269C28.4693 1.84667 27.1353 2.35628 25.7442 2.62935C24.8087 1.63051 23.5696 0.968456 22.2193 0.745987C20.869 0.523517 19.483 0.753077 18.2765 1.39902C17.07 2.04497 16.1105 3.07117 15.5471 4.31829C14.9836 5.56542 14.8476 6.96369 15.1602 8.29602C12.6904 8.17202 10.2743 7.53009 8.06874 6.41189C5.86314 5.2937 3.9173 3.72424 2.35751 1.80535C1.82418 2.72535 1.51751 3.79202 1.51751 4.92802C1.51692 5.95068 1.76876 6.95768 2.25068 7.85966C2.73261 8.76165 3.42973 9.53074 4.28018 10.0987C3.29388 10.0673 2.32934 9.8008 1.46685 9.32135V9.40135C1.46675 10.8357 1.96289 12.2259 2.87109 13.336C3.77929 14.4462 5.04361 15.2079 6.44951 15.492C5.53456 15.7396 4.5753 15.7761 3.64418 15.5987C4.04084 16.8328 4.81351 17.9121 5.854 18.6853C6.8945 19.4585 8.15073 19.8869 9.44685 19.9107C7.24662 21.6379 4.52936 22.5748 1.73218 22.5707C1.23669 22.5708 0.741613 22.5419 0.249512 22.484C3.08881 24.3096 6.39397 25.2784 9.76951 25.2747C21.1962 25.2747 27.4428 15.8107 27.4428 7.60269C27.4428 7.33602 27.4362 7.06669 27.4242 6.80002C28.6392 5.92132 29.6881 4.83322 30.5215 3.58669L30.5242 3.58269Z" fill="#E9E9E9"/>
</svg>
